<svg width="64" height="64" viewBox="0 0 64 64" fill="none" xmlns="http://www.w3.org/2000/svg">
<rect width="64" height="64" fill="white"/>
<path d="M24 32H46.5" stroke="#F03B51" stroke-width="4"/>
<circle cx="24" cy="32" r="22.5" stroke="black" stroke-width="3"/>
<path d="M58.0744 34.788C56.9464 34.788 56.4064 34.008 56.4064 31.812C56.4064 29.604 56.9344 28.8 57.9784 28.8C59.1184 28.8 59.6104 29.616 59.6104 31.812C59.6104 33.984 59.1424 34.788 58.0744 34.788ZM58.0144 36.132C60.0784 36.132 61.2304 34.872 61.2304 31.8C61.2304 28.8 60.2104 27.468 57.9784 27.468C55.9744 27.468 54.7864 28.788 54.7864 31.8C54.7864 34.788 55.9144 36.132 58.0144 36.132Z" fill="#F03B51"/>
</svg>
