<svg width="64" height="64" viewBox="0 0 64 64" fill="none" xmlns="http://www.w3.org/2000/svg">
<g clip-path="url(#clip0)">
<rect width="64" height="64" fill="white"/>
<path d="M24 32L41 49" stroke="#F03B51" stroke-width="4"/>
<circle cx="24" cy="32" r="22.5" stroke="black" stroke-width="3"/>
<path d="M62.0516 41.302H63.1296V39.86H56.8016C55.4156 39.86 54.7996 40.168 54.4496 40.42L54.9956 41.778C55.2616 41.568 55.6676 41.344 56.1576 41.344V47H57.7816V41.302H60.4276V45.306C60.4276 46.664 61.0436 47.154 62.1076 47.154C62.3876 47.154 62.7376 47.126 62.9756 47.07L62.9476 45.628C62.8076 45.656 62.7096 45.67 62.5976 45.67C62.2056 45.67 62.0516 45.446 62.0516 44.816V41.302Z" fill="#F03B51"/>
<path d="M51.8186 50.366H44.1746V51.654H51.8186V50.366Z" fill="#F03B51"/>
<path d="M54 51H64" stroke="#F03B51" stroke-width="1.2"/>
<path d="M56.8731 60.262L59.9671 55.81H59.9951V60.262H56.8731ZM61.7731 61.886H63.0051V60.248H61.7731V54.2H59.4211L55.1791 60.332V61.886H59.9811V64H61.7731V61.886Z" fill="#F03B51"/>
</g>
<defs>
<clipPath id="clip0">
<rect width="64" height="64" fill="white"/>
</clipPath>
</defs>
</svg>
